<svg width="48" height="48" viewBox="0 0 48 48" fill="none" xmlns="http://www.w3.org/2000/svg">
<rect width="48" height="48" rx="8" fill="#90DDFF"/>
<path d="M34.4375 18H37.3125V27.3125L33.5625 28.5625L31.3125 36H24V33.3125H21.3125V36H14C14 36 13.9167 35.7292 13.75 35.1875C13.5833 34.6042 13.375 33.8542 13.125 32.9375C12.875 32.0208 12.6042 31 12.3125 29.875C12.0625 28.75 11.7917 27.6042 11.5 26.4375C11.25 25.2708 11.0417 24.1875 10.875 23.1875C10.75 22.1875 10.6875 21.3542 10.6875 20.6875C10.6875 19.3125 11 18.0833 11.625 17C12.2917 15.875 13.1875 14.9792 14.3125 14.3125C15.4375 13.6458 16.6667 13.3125 18 13.3125H24.6875C25.2708 12.5208 26.0208 11.8958 26.9375 11.4375C27.8958 10.9375 28.9167 10.6875 30 10.6875C30.5417 10.6875 31 10.875 31.375 11.25C31.7917 11.625 32 12.1042 32 12.6875C32 12.9375 31.9375 13.1875 31.8125 13.4375C31.6458 13.8958 31.5208 14.4167 31.4375 15L34.4375 18ZM25.3125 20V17.3125H18.6875V20H25.3125ZM29.3125 22.6875C29.6875 22.6875 30 22.5625 30.25 22.3125C30.5417 22.0208 30.6875 21.6875 30.6875 21.3125C30.6875 20.9792 30.5417 20.6875 30.25 20.4375C30 20.1458 29.6875 20 29.3125 20C28.9792 20 28.6667 20.1458 28.375 20.4375C28.125 20.6875 28 20.9792 28 21.3125C28 21.6875 28.125 22.0208 28.375 22.3125C28.6667 22.5625 28.9792 22.6875 29.3125 22.6875Z" fill="white"/>
</svg>
